<?xml version="1.0" encoding="utf-8"?>
<!-- Generator: Adobe Illustrator 22.1.0, SVG Export Plug-In . SVG Version: 6.00 Build 0)  -->
<svg version="1.1" id="Livello_1" xmlns="http://www.w3.org/2000/svg" xmlns:xlink="http://www.w3.org/1999/xlink" x="0px" y="0px"
	 viewBox="0 0 1315.1 522" style="enable-background:new 0 0 1315.1 522;" xml:space="preserve">
<style type="text/css">
	.st0{display:none;}
	.st1{display:inline;}
	.st2{fill:#EEF1F7;}
	.st3{fill:#333333;}
	.st4{font-family:'Karla-Bold';}
	.st5{font-size:12.6223px;}
	.st6{fill:#4965AC;}
	.st7{font-family:'Karla-Regular';}
	.st8{font-size:10px;}
	.st9{fill:#0D8C99;}
	.st10{fill:#B4BEDF;}
	.st11{fill:#97CCCE;}
</style>
<g id="Pop_Up">
	<g id="ArgentinaPopUp" class="st0">
		<g class="st1">
			<path class="st2" d="M275.1,245.7H153.2c-1.2,0-2.1-0.9-2.1-2.1v-58.4c0-1.2,0.9-2.1,2.1-2.1h121.9c1.2,0,2.1,0.9,2.1,2.1v58.4
				C277.2,244.8,276.4,245.7,275.1,245.7z"/>
			<g>
				<text transform="matrix(1 0 0 1 169.5341 205.7568)" class="st3 st4 st5">Argentina</text>
			</g>
			<g>
				<text transform="matrix(1 0 0 1 169.534 220.9233)" class="st6 st7 st8">34.80% degli stipendi</text>
			</g>
			<g>
				<text transform="matrix(1 0 0 1 169.5341 233.4234)" class="st9 st7 st8">43.78% dei lavoratori</text>
			</g>
		</g>
	</g>
	<g id="USAPopUp" class="st0">
		<g class="st1">
			<path class="st2" d="M1106.8,79.4H981.3c-1.2,0-2.2-0.9-2.2-2.1V18.9c0-1.2,0.9-2.1,2.2-2.1h125.5c1.2,0,2.2,0.9,2.2,2.1v58.4
				C1109,78.5,1107.9,79.4,1106.8,79.4z"/>
			<g>
				<text transform="matrix(1 0 0 1 997.48 39.463)" class="st3 st4 st5">Stati Uniti</text>
			</g>
			<g>
				<text transform="matrix(1 0 0 1 997.4798 54.6295)" class="st6 st7 st8">36.62% degli stipendi</text>
			</g>
			<g>
				<text transform="matrix(1 0 0 1 997.48 67.1297)" class="st9 st7 st8">45.80% dei lavoratori</text>
			</g>
		</g>
	</g>
	<g id="AustraliaPopUp" class="st0">
		<g class="st1">
			<path class="st2" d="M1223.4,235.4h-121.9c-1.2,0-2.1-0.9-2.1-2.1v-58.4c0-1.2,0.9-2.1,2.1-2.1h121.9c1.2,0,2.1,0.9,2.1,2.1v58.4
				C1225.5,234.5,1224.6,235.4,1223.4,235.4z"/>
			<g>
				<text transform="matrix(1 0 0 1 1117.8624 195.5068)" class="st3 st4 st5">Australia</text>
			</g>
			<g>
				<text transform="matrix(1 0 0 1 1117.8622 210.6732)" class="st6 st7 st8">37.74% degli stipendi</text>
			</g>
			<g>
				<text transform="matrix(1 0 0 1 1117.8624 223.1734)" class="st9 st7 st8">44.39% dei lavoratori</text>
			</g>
		</g>
	</g>
	<g id="AustriaPopUp" class="st0">
		<g class="st1">
			<path class="st2" d="M1252.8,244.9h-121.9c-1.2,0-2.1-0.9-2.1-2.1v-58.4c0-1.2,0.9-2.1,2.1-2.1h121.9c1.2,0,2.1,0.9,2.1,2.1v58.4
				C1254.9,244,1253.9,244.9,1252.8,244.9z"/>
			<g>
				<text transform="matrix(1 0 0 1 1147.1627 204.9584)" class="st3 st4 st5">Austria</text>
			</g>
			<g>
				<text transform="matrix(1 0 0 1 1147.1625 220.1249)" class="st6 st7 st8">42.88% degli stipendi</text>
			</g>
			<g>
				<text transform="matrix(1 0 0 1 1147.1627 232.6251)" class="st9 st7 st8">41.59% dei lavoratori</text>
			</g>
		</g>
	</g>
	<g id="BrazilPopUp" class="st0">
		<g class="st1">
			<path class="st2" d="M849.1,219.1H727.2c-1.2,0-2.1-0.9-2.1-2.1v-58.4c0-1.2,0.9-2.1,2.1-2.1h121.9c1.2,0,2.1,0.9,2.1,2.1V217
				C851.2,218.1,850.3,219.1,849.1,219.1z"/>
			<g>
				<text transform="matrix(1 0 0 1 743.514 179.1434)" class="st3 st4 st5">Brasile</text>
			</g>
			<g>
				<text transform="matrix(1 0 0 1 743.5139 194.3099)" class="st6 st7 st8">36.91% degli stipendi</text>
			</g>
			<g>
				<text transform="matrix(1 0 0 1 743.514 206.8101)" class="st9 st7 st8">49.08% dei lavoratori</text>
			</g>
		</g>
	</g>
	<g id="CanadaPopUp" class="st0">
		<g class="st1">
			<path class="st2" d="M761.9,229H640c-1.2,0-2.1-0.9-2.1-2.1v-58.4c0-1.2,0.9-2.1,2.1-2.1h121.9c1.2,0,2.1,0.9,2.1,2.1v58.4
				C764,228.1,763,229,761.9,229z"/>
			<g>
				<text transform="matrix(1 0 0 1 656.2844 189.0964)" class="st3 st4 st5">Canada</text>
			</g>
			<g>
				<text transform="matrix(1 0 0 1 656.2843 204.263)" class="st6 st7 st8">39.73% degli stipendi</text>
			</g>
			<g>
				<text transform="matrix(1 0 0 1 656.2844 216.7631)" class="st9 st7 st8">42.11% dei lavoratori</text>
			</g>
		</g>
	</g>
	<g id="ColombiaPopUp" class="st0">
		<g class="st1">
			<path class="st2" d="M245,250.9H123.1c-1.2,0-2.1-0.9-2.1-2.1v-58.4c0-1.2,0.9-2.1,2.1-2.1H245c1.2,0,2.1,0.9,2.1,2.1v58.4
				C247.1,250,246.2,250.9,245,250.9z"/>
			<g>
				<text transform="matrix(1 0 0 1 139.4158 211.0078)" class="st3 st4 st5">Colombia</text>
			</g>
			<g>
				<text transform="matrix(1 0 0 1 139.4156 226.1743)" class="st6 st7 st8">40.98% degli stipendi</text>
			</g>
			<g>
				<text transform="matrix(1 0 0 1 139.4158 238.6743)" class="st9 st7 st8">52.98% dei lavoratori</text>
			</g>
		</g>
	</g>
	<g id="CzechRepPopUp" class="st0">
		<g class="st1">
			<path class="st2" d="M1283.5,247.6h-121.9c-1.2,0-2.1-0.9-2.1-2.1v-58.4c0-1.2,0.9-2.1,2.1-2.1h121.9c1.2,0,2.1,0.9,2.1,2.1v58.4
				C1285.6,246.7,1284.7,247.6,1283.5,247.6z"/>
			<g>
				<text transform="matrix(1 0 0 1 1177.9467 207.6895)" class="st3 st4 st5">Repubblica Ceca</text>
			</g>
			<g>
				<text transform="matrix(1 0 0 1 1177.9464 222.856)" class="st6 st7 st8">40.41% degli stipendi</text>
			</g>
			<g>
				<text transform="matrix(1 0 0 1 1177.9467 235.3561)" class="st9 st7 st8">58.72% dei lavoratori</text>
			</g>
		</g>
	</g>
	<g id="EgyptPopUp" class="st0">
		<g class="st1">
			<path class="st2" d="M489.7,244.9h-122c-1.2,0-2.1-0.9-2.1-2.1v-58.4c0-1.2,0.9-2.1,2.1-2.1h122c1.2,0,2.1,0.9,2.1,2.1v58.4
				C491.7,244,490.9,244.9,489.7,244.9z"/>
			<g>
				<text transform="matrix(1 0 0 1 384.0683 204.9542)" class="st3 st4 st5">Egitto</text>
			</g>
			<g>
				<text transform="matrix(1 0 0 1 384.0682 220.1207)" class="st6 st7 st8">35.00% degli stipendi</text>
			</g>
			<g>
				<text transform="matrix(1 0 0 1 384.0683 232.6208)" class="st9 st7 st8">49.95% dei lavoratori</text>
			</g>
		</g>
	</g>
	<g id="FrancePopUp" class="st0">
		<g class="st1">
			<path class="st2" d="M820.1,223.1H698.2c-1.2,0-2.1-0.9-2.1-2.1v-58.4c0-1.2,0.9-2.1,2.1-2.1h121.9c1.2,0,2.1,0.9,2.1,2.1V221
				C822.2,222.2,821.3,223.1,820.1,223.1z"/>
			<g>
				<text transform="matrix(1 0 0 1 714.5421 183.1999)" class="st3 st4 st5">Francia</text>
			</g>
			<g>
				<text transform="matrix(1 0 0 1 714.5418 198.3664)" class="st6 st7 st8">37.08% degli stipendi</text>
			</g>
			<g>
				<text transform="matrix(1 0 0 1 714.5421 210.8666)" class="st9 st7 st8">40.67% dei lavoratori</text>
			</g>
		</g>
	</g>
	<g id="GermanyPopUp" class="st0">
		<g class="st1">
			<path class="st2" d="M908.9,190.7H787c-1.2,0-2.1-0.9-2.1-2.1v-58.4c0-1.2,0.9-2.1,2.1-2.1h121.9c1.2,0,2.1,0.9,2.1,2.1v58.4
				C911,189.8,910.1,190.7,908.9,190.7z"/>
			<g>
				<text transform="matrix(1 0 0 1 803.3413 150.7541)" class="st3 st4 st5">Germania</text>
			</g>
			<g>
				<text transform="matrix(1 0 0 1 803.341 165.9206)" class="st6 st7 st8">42.93% degli stipendi</text>
			</g>
			<g>
				<text transform="matrix(1 0 0 1 803.3413 178.4208)" class="st9 st7 st8">46.22% dei lavoratori</text>
			</g>
		</g>
	</g>
	<g id="GreecePopUp" class="st0">
		<g class="st1">
			<path class="st2" d="M184.5,252.3H62.6c-1.2,0-2.1-0.9-2.1-2.1v-58.4c0-1.2,0.9-2.1,2.1-2.1h121.9c1.2,0,2.1,0.9,2.1,2.1v58.5
				C186.6,251.4,185.7,252.3,184.5,252.3z"/>
			<g>
				<text transform="matrix(1 0 0 1 78.9187 212.4879)" class="st3 st4 st5">Grecia</text>
			</g>
			<g>
				<text transform="matrix(1 0 0 1 78.9184 227.6544)" class="st6 st7 st8">39.32% degli stipendi</text>
			</g>
			<g>
				<text transform="matrix(1 0 0 1 78.9187 240.1546)" class="st9 st7 st8">45.19% dei lavoratori</text>
			</g>
		</g>
	</g>
	<g id="IndiaPopUp" class="st0">
		<g class="st1">
			<path class="st2" d="M1133.2,206.5h-121.9c-1.2,0-2.1-0.9-2.1-2.1V146c0-1.2,0.9-2.1,2.1-2.1h121.9c1.2,0,2.1,0.9,2.1,2.1v58.4
				C1135.3,205.6,1134.3,206.5,1133.2,206.5z"/>
			<g>
				<text transform="matrix(1 0 0 1 1027.6005 166.6022)" class="st3 st4 st5">India</text>
			</g>
			<g>
				<text transform="matrix(1 0 0 1 1027.6002 181.7687)" class="st6 st7 st8">41.49% degli stipendi</text>
			</g>
			<g>
				<text transform="matrix(1 0 0 1 1027.6005 194.269)" class="st9 st7 st8">51.76% dei lavoratori</text>
			</g>
		</g>
	</g>
	<g id="IndonesiaPopUP" class="st0">
		<g class="st1">
			<path class="st2" d="M671.4,238.6H549.5c-1.2,0-2.1-0.9-2.1-2.1v-58.4c0-1.2,0.9-2.1,2.1-2.1h121.9c1.2,0,2.1,0.9,2.1,2.1v58.4
				C673.5,237.7,672.6,238.6,671.4,238.6z"/>
			<g>
				<text transform="matrix(1 0 0 1 565.803 198.6932)" class="st3 st4 st5">Indonesia</text>
			</g>
			<g>
				<text transform="matrix(1 0 0 1 565.8028 213.8596)" class="st6 st7 st8">38.84% degli stipendi</text>
			</g>
			<g>
				<text transform="matrix(1 0 0 1 565.803 226.3598)" class="st9 st7 st8">51.85% dei lavoratori</text>
			</g>
		</g>
	</g>
	<g id="ItalyPopUp" class="st0">
		<g class="st1">
			<path class="st2" d="M790.6,231.7H668.7c-1.2,0-2.1-0.9-2.1-2.1v-58.4c0-1.2,0.9-2.1,2.1-2.1h121.9c1.2,0,2.1,0.9,2.1,2.1v58.4
				C792.7,230.8,791.7,231.7,790.6,231.7z"/>
			<g>
				<text transform="matrix(1 0 0 1 684.9896 191.7579)" class="st3 st4 st5">Italia</text>
			</g>
			<g>
				<text transform="matrix(1 0 0 1 684.9893 206.9244)" class="st6 st7 st8">43.28% degli stipendi</text>
			</g>
			<g>
				<text transform="matrix(1 0 0 1 684.9896 219.4246)" class="st9 st7 st8">42.86% dei lavoratori</text>
			</g>
		</g>
	</g>
	<g id="JapanPopUp" class="st0">
		<g class="st1">
			<path class="st2" d="M1103.1,182.5H981.2c-1.2,0-2.1-0.9-2.1-2.1V122c0-1.2,0.9-2.1,2.1-2.1h121.9c1.2,0,2.1,0.9,2.1,2.1v58.4
				C1105.2,181.6,1104.2,182.5,1103.1,182.5z"/>
			<g>
				<text transform="matrix(1 0 0 1 997.48 142.5974)" class="st3 st4 st5">Giappone</text>
			</g>
			<g>
				<text transform="matrix(1 0 0 1 997.4798 157.7637)" class="st6 st7 st8">47.13% degli stipendi</text>
			</g>
			<g>
				<text transform="matrix(1 0 0 1 997.48 170.264)" class="st9 st7 st8">54.82% dei lavoratori</text>
			</g>
		</g>
	</g>
	<g id="KenyaPopUp" class="st0">
		<g class="st1">
			<path class="st2" d="M124,253.6H2.1c-1.2,0-2.1-0.9-2.1-2.1v-58.4c0-1.2,0.9-2.1,2.1-2.1H124c1.2,0,2.1,0.9,2.1,2.1v58.5
				C126.1,252.7,125.1,253.6,124,253.6z"/>
			<g>
				<text transform="matrix(1 0 0 1 18.4041 213.7379)" class="st3 st4 st5">Kenya</text>
			</g>
			<g>
				<text transform="matrix(1 0 0 1 18.404 228.9044)" class="st6 st7 st8">37.23% degli stipendi</text>
			</g>
			<g>
				<text transform="matrix(1 0 0 1 18.4041 241.4046)" class="st9 st7 st8">49.82% dei lavoratori</text>
			</g>
		</g>
	</g>
	<g id="MalaysiaPopUp" class="st0">
		<g class="st1">
			<path class="st2" d="M461.6,247.6H339.7c-1.2,0-2.1-0.9-2.1-2.1v-58.4c0-1.2,0.9-2.1,2.1-2.1h121.9c1.2,0,2.1,0.9,2.1,2.1v58.4
				C463.7,246.7,462.8,247.6,461.6,247.6z"/>
			<g>
				<text transform="matrix(1 0 0 1 356.0782 207.7462)" class="st3 st4 st5">Malesia</text>
			</g>
			<g>
				<text transform="matrix(1 0 0 1 356.0781 222.9127)" class="st6 st7 st8">39.70% degli stipendi</text>
			</g>
			<g>
				<text transform="matrix(1 0 0 1 356.0782 235.4128)" class="st9 st7 st8">50.95% dei lavoratori</text>
			</g>
		</g>
	</g>
	<g id="MexicoPopUp" class="st0">
		<g class="st1">
			<path class="st2" d="M732.1,237.7H610.2c-1.2,0-2.1-0.9-2.1-2.1v-58.4c0-1.2,0.9-2.1,2.1-2.1h121.9c1.2,0,2.1,0.9,2.1,2.1v58.4
				C734.2,236.8,733.2,237.7,732.1,237.7z"/>
			<g>
				<text transform="matrix(1 0 0 1 626.4788 197.7213)" class="st3 st4 st5">Messico</text>
			</g>
			<g>
				<text transform="matrix(1 0 0 1 626.4788 212.8878)" class="st6 st7 st8">32.83% degli stipendi</text>
			</g>
			<g>
				<text transform="matrix(1 0 0 1 626.4788 225.3879)" class="st9 st7 st8">51.05% dei lavoratori</text>
			</g>
		</g>
	</g>
	<g id="MoroccoPopUp" class="st0">
		<g class="st1">
			<path class="st2" d="M154.1,253.6H32.2c-1.2,0-2.1-0.9-2.1-2.1v-58.4c0-1.2,0.9-2.1,2.1-2.1h121.9c1.2,0,2.1,0.9,2.1,2.1v58.5
				C156.2,252.7,155.3,253.6,154.1,253.6z"/>
			<g>
				<text transform="matrix(1 0 0 1 48.4942 213.7379)" class="st3 st4 st5">Marocco</text>
			</g>
			<g>
				<text transform="matrix(1 0 0 1 48.4941 228.9044)" class="st6 st7 st8">37.68% degli stipendi</text>
			</g>
			<g>
				<text transform="matrix(1 0 0 1 48.4942 241.4046)" class="st9 st7 st8">49.56% dei lavoratori</text>
			</g>
		</g>
	</g>
	<g id="NetherlandsPopUp" class="st0">
		<g class="st1">
			<path class="st2" d="M611.7,241H489.9c-1.2,0-2.1-0.9-2.1-2.1v-58.4c0-1.2,0.9-2.1,2.1-2.1h121.9c1.2,0,2.1,0.9,2.1,2.1v58.4
				C613.9,240.1,612.9,241,611.7,241z"/>
			<g>
				<text transform="matrix(1 0 0 1 506.1376 201.0892)" class="st3 st4 st5">Paesi Bassi</text>
			</g>
			<g>
				<text transform="matrix(1 0 0 1 506.1374 216.2557)" class="st6 st7 st8">38.48% degli stipendi</text>
			</g>
			<g>
				<text transform="matrix(1 0 0 1 506.1376 228.7559)" class="st9 st7 st8">37.57% dei lavoratori</text>
			</g>
		</g>
	</g>
	<g id="NigeriaPopUp" class="st0">
		<g class="st1">
			<path class="st2" d="M579.6,242.8H457.7c-1.2,0-2.1-0.9-2.1-2.1v-58.4c0-1.2,0.9-2.1,2.1-2.1h121.9c1.2,0,2.1,0.9,2.1,2.1v58.4
				C581.7,241.9,580.7,242.8,579.6,242.8z"/>
			<g>
				<text transform="matrix(1 0 0 1 473.9739 202.8893)" class="st3 st4 st5">Nigeria</text>
			</g>
			<g>
				<text transform="matrix(1 0 0 1 473.9737 218.0558)" class="st6 st7 st8">36.97% degli stipendi</text>
			</g>
			<g>
				<text transform="matrix(1 0 0 1 473.9739 230.5559)" class="st9 st7 st8">45.45% dei lavoratori</text>
			</g>
		</g>
	</g>
	<g id="OmanPopUp" class="st0">
		<g class="st1">
			<path class="st2" d="M1313,250.1h-121.9c-1.2,0-2.1-0.9-2.1-2.1v-58.4c0-1.2,0.9-2.1,2.1-2.1H1313c1.2,0,2.1,0.9,2.1,2.1V248
				C1315.1,249.2,1314.2,250.1,1313,250.1z"/>
			<g>
				<text transform="matrix(1 0 0 1 1207.4406 210.2088)" class="st3 st4 st5">Oman</text>
			</g>
			<g>
				<text transform="matrix(1 0 0 1 1207.4403 225.3753)" class="st6 st7 st8">37.12% degli stipendi</text>
			</g>
			<g>
				<text transform="matrix(1 0 0 1 1207.4406 237.8755)" class="st9 st7 st8">48.29% dei lavoratori</text>
			</g>
		</g>
	</g>
	<g id="SpainPopUp" class="st0">
		<g class="st1">
			<path class="st2" d="M701.7,234.3H579.8c-1.2,0-2.1-0.9-2.1-2.1v-58.4c0-1.2,0.9-2.1,2.1-2.1h121.9c1.2,0,2.1,0.9,2.1,2.1v58.4
				C703.8,233.4,702.8,234.3,701.7,234.3z"/>
			<g>
				<text transform="matrix(1 0 0 1 596.0806 194.3688)" class="st3 st4 st5">Spagna</text>
			</g>
			<g>
				<text transform="matrix(1 0 0 1 596.0803 209.5353)" class="st6 st7 st8">40.43% degli stipendi</text>
			</g>
			<g>
				<text transform="matrix(1 0 0 1 596.0806 222.0355)" class="st9 st7 st8">47.66% dei lavoratori</text>
			</g>
		</g>
	</g>
	<g id="SouthKoreaPopUp" class="st0">
		<g class="st1">
			<path class="st2" d="M1193,230h-121.9c-1.2,0-2.1-0.9-2.1-2.1v-58.4c0-1.2,0.9-2.1,2.1-2.1H1193c1.2,0,2.1,0.9,2.1,2.1v58.4
				C1195.1,229,1194.1,230,1193,230z"/>
			<g>
				<text transform="matrix(1 0 0 1 1087.4078 190.0424)" class="st3 st4 st5">Corea del sud</text>
			</g>
			<g>
				<text transform="matrix(1 0 0 1 1087.4076 205.2088)" class="st6 st7 st8">44.67% degli stipendi</text>
			</g>
			<g>
				<text transform="matrix(1 0 0 1 1087.4078 217.709)" class="st9 st7 st8">51.73% dei lavoratori</text>
			</g>
		</g>
	</g>
	<g id="SouthAfricaPopUp" class="st0">
		<g class="st1">
			<path class="st2" d="M429.5,244.9h-122c-1.2,0-2.1-0.9-2.1-2.1v-58.4c0-1.2,0.9-2.1,2.1-2.1h122c1.2,0,2.1,0.9,2.1,2.1v58.4
				C431.5,244,430.5,244.9,429.5,244.9z"/>
			<g>
				<text transform="matrix(1 0 0 1 323.8574 204.9584)" class="st3 st4 st5">Africa del sud</text>
			</g>
			<g>
				<text transform="matrix(1 0 0 1 323.857 220.1249)" class="st6 st7 st8">32.49% degli stipendi</text>
			</g>
			<g>
				<text transform="matrix(1 0 0 1 323.8574 232.6251)" class="st9 st7 st8">44.71% dei lavoratori</text>
			</g>
		</g>
	</g>
	<g id="SingaporePopUp" class="st0">
		<g class="st1">
			<path class="st2" d="M368.5,244.9h-122c-1.2,0-2.1-0.9-2.1-2.1v-58.4c0-1.2,0.9-2.1,2.1-2.1h121.9c1.2,0,2.1,0.9,2.1,2.1v58.4
				C370.5,244,369.7,244.9,368.5,244.9z"/>
			<g>
				<text transform="matrix(1 0 0 1 262.8424 204.9584)" class="st3 st4 st5">Singapore</text>
			</g>
			<g>
				<text transform="matrix(1 0 0 1 262.8419 220.1249)" class="st6 st7 st8">34.45% degli stipendi</text>
			</g>
			<g>
				<text transform="matrix(1 0 0 1 262.8424 232.6251)" class="st9 st7 st8">50.08% dei lavoratori</text>
			</g>
		</g>
	</g>
	<g id="SaudiArabiaPopUp" class="st0">
		<g class="st1">
			<path class="st2" d="M640.9,241.1H519c-1.2,0-2.1-0.9-2.1-2.1v-58.4c0-1.2,0.9-2.1,2.1-2.1h121.9c1.2,0,2.1,0.9,2.1,2.1V239
				C643,240.2,642.1,241.1,640.9,241.1z"/>
			<g>
				<text transform="matrix(1 0 0 1 535.322 201.16)" class="st3 st4 st5">Arabia Saudita</text>
			</g>
			<g>
				<text transform="matrix(1 0 0 1 535.3218 216.3265)" class="st6 st7 st8">40.18% degli stipendi</text>
			</g>
			<g>
				<text transform="matrix(1 0 0 1 535.322 228.8268)" class="st9 st7 st8">46.28% dei lavoratori</text>
			</g>
		</g>
	</g>
	<g id="RussiaPopUp" class="st0">
		<g class="st1">
			<path class="st2" d="M878.8,214.5H756.9c-1.2,0-2.1-0.9-2.1-2.1V154c0-1.2,0.9-2.1,2.1-2.1h121.9c1.2,0,2.1,0.9,2.1,2.1v58.4
				C880.9,213.6,879.9,214.5,878.8,214.5z"/>
			<g>
				<text transform="matrix(1 0 0 1 773.1831 174.5685)" class="st3 st4 st5">Russia</text>
			</g>
			<g>
				<text transform="matrix(1 0 0 1 773.1828 189.735)" class="st6 st7 st8">42.27% degli stipendi</text>
			</g>
			<g>
				<text transform="matrix(1 0 0 1 773.1831 202.2353)" class="st9 st7 st8">49.37% dei lavoratori</text>
			</g>
		</g>
	</g>
	<g id="QatarPopUp" class="st0">
		<g class="st1">
			<path class="st2" d="M214.6,250.9H92.7c-1.2,0-2.1-0.9-2.1-2.1v-58.4c0-1.2,0.9-2.1,2.1-2.1h121.9c1.2,0,2.1,0.9,2.1,2.1v58.4
				C216.7,250,215.8,250.9,214.6,250.9z"/>
			<g>
				<text transform="matrix(1 0 0 1 109.038 211.0078)" class="st3 st4 st5">Qatar</text>
			</g>
			<g>
				<text transform="matrix(1 0 0 1 109.0378 226.1743)" class="st6 st7 st8">42.14% degli stipendi</text>
			</g>
			<g>
				<text transform="matrix(1 0 0 1 109.038 238.6743)" class="st9 st7 st8">42.42% dei lavoratori</text>
			</g>
		</g>
	</g>
	<g id="PolandPopUp" class="st0">
		<g class="st1">
			<path class="st2" d="M549.9,245.6H428c-1.2,0-2.1-0.9-2.1-2.1v-58.4c0-1.2,0.9-2.1,2.1-2.1h121.9c1.2,0,2.1,0.9,2.1,2.1v58.4
				C552,244.6,551.1,245.6,549.9,245.6z"/>
			<g>
				<text transform="matrix(1 0 0 1 444.341 205.5978)" class="st3 st4 st5">Polonia</text>
			</g>
			<g>
				<text transform="matrix(1 0 0 1 444.3407 220.7643)" class="st6 st7 st8">37.34% degli stipendi</text>
			</g>
			<g>
				<text transform="matrix(1 0 0 1 444.341 233.2644)" class="st9 st7 st8">50.16% dei lavoratori</text>
			</g>
		</g>
	</g>
	<g id="PhilippinesPopUp" class="st0">
		<g class="st1">
			<path class="st2" d="M338,245H216.1c-1.2,0-2.1-0.9-2.1-2.1v-58.4c0-1.2,0.9-2.1,2.1-2.1H338c1.2,0,2.1,0.9,2.1,2.1v58.4
				C340.1,244.1,339.1,245,338,245z"/>
			<g>
				<text transform="matrix(1 0 0 1 232.3093 205.039)" class="st3 st4 st5">Filippine</text>
			</g>
			<g>
				<text transform="matrix(1 0 0 1 232.3091 220.2054)" class="st6 st7 st8">36.56% degli stipendi</text>
			</g>
			<g>
				<text transform="matrix(1 0 0 1 232.3093 232.7057)" class="st9 st7 st8">47.78% dei lavoratori</text>
			</g>
		</g>
	</g>
	<g id="SwitzerlanPopUp" class="st0">
		<g class="st1">
			<path class="st2" d="M1253.2,247.6h-121.9c-1.2,0-2.1-0.9-2.1-2.1v-58.4c0-1.2,0.9-2.1,2.1-2.1h121.9c1.2,0,2.1,0.9,2.1,2.1v58.4
				C1255.3,246.7,1254.3,247.6,1253.2,247.6z"/>
			<g>
				<text transform="matrix(1 0 0 1 1147.5731 207.6895)" class="st3 st4 st5">Svizzera</text>
			</g>
			<g>
				<text transform="matrix(1 0 0 1 1147.5729 222.856)" class="st6 st7 st8">40.47% degli stipendi</text>
			</g>
			<g>
				<text transform="matrix(1 0 0 1 1147.5731 235.3561)" class="st9 st7 st8">34.21% dei lavoratori</text>
			</g>
		</g>
	</g>
	<g id="ThaiPopUp" class="st0">
		<g class="st1">
			<path class="st2" d="M399,248.2H277.1c-1.2,0-2.1-0.9-2.1-2.1v-58.4c0-1.2,0.9-2.1,2.1-2.1H399c1.2,0,2.1,0.9,2.1,2.1v58.4
				C401.1,247.2,400.1,248.2,399,248.2z"/>
			<g>
				<text transform="matrix(1 0 0 1 293.406 208.2759)" class="st3 st4 st5">Thailandia</text>
			</g>
			<g>
				<text transform="matrix(1 0 0 1 293.4057 223.4424)" class="st6 st7 st8">40.10% degli stipendi</text>
			</g>
			<g>
				<text transform="matrix(1 0 0 1 293.406 235.9426)" class="st9 st7 st8">54.53% dei lavoratori</text>
			</g>
		</g>
	</g>
	<g id="TurkeyPopUp" class="st0">
		<g class="st1">
			<path class="st2" d="M520.5,245.5H398.6c-1.2,0-2.1-0.9-2.1-2.1V185c0-1.2,0.9-2.1,2.1-2.1h121.9c1.2,0,2.1,0.9,2.1,2.1v58.4
				C522.6,244.5,521.6,245.5,520.5,245.5z"/>
			<g>
				<text transform="matrix(1 0 0 1 414.7982 205.4764)" class="st3 st4 st5">Turchia</text>
			</g>
			<g>
				<text transform="matrix(1 0 0 1 414.7979 220.6429)" class="st6 st7 st8">40.18% degli stipendi</text>
			</g>
			<g>
				<text transform="matrix(1 0 0 1 414.7982 233.143)" class="st9 st7 st8">48.99% dei lavoratori</text>
			</g>
		</g>
	</g>
	<g id="UnitedArabEmiratesPopUp" class="st0">
		<g class="st1">
			<path class="st2" d="M306.9,245.1H158.2c-1.2,0-2.1-0.9-2.1-2.1v-58.4c0-1.2,0.9-2.1,2.1-2.1h148.7c1.2,0,2.1,0.9,2.1,2.1V243
				C308.9,244.2,308,245.1,306.9,245.1z"/>
			<g>
				<text transform="matrix(1 0 0 1 174.4262 205.2088)" class="st3 st4 st5">Emirati Arabi</text>
			</g>
			<g>
				<text transform="matrix(1 0 0 1 174.4259 220.3753)" class="st6 st7 st8">35.51% degli stipendi</text>
			</g>
			<g>
				<text transform="matrix(1 0 0 1 174.4262 232.8755)" class="st9 st7 st8">46.36% dei lavoratori</text>
			</g>
		</g>
	</g>
	<g id="UKPopUp" class="st0">
		<g class="st1">
			<path class="st2" d="M1163.3,218.4h-121.9c-1.2,0-2.1-0.9-2.1-2.1v-58.4c0-1.2,0.9-2.1,2.1-2.1h121.9c1.2,0,2.1,0.9,2.1,2.1v58.4
				C1165.4,217.4,1164.5,218.4,1163.3,218.4z"/>
			<g>
				<text transform="matrix(1 0 0 1 1057.7216 178.4351)" class="st3 st4 st5">Regno Unito</text>
			</g>
			<g>
				<text transform="matrix(1 0 0 1 1057.7214 193.6016)" class="st6 st7 st8">34.77% degli stipendi</text>
			</g>
			<g>
				<text transform="matrix(1 0 0 1 1057.7216 206.1018)" class="st9 st7 st8">40.37% dei lavoratori</text>
			</g>
		</g>
	</g>
	<g id="ChinaPopUp" class="st0">
		<g class="st1">
			<path class="st2" d="M939.7,79.4H817.8c-1.2,0-2.1-0.9-2.1-2.1V18.9c0-1.2,0.9-2.1,2.1-2.1h121.9c1.2,0,2.1,0.9,2.1,2.1v58.4
				C941.8,78.5,940.9,79.4,939.7,79.4z"/>
			<g>
				<text transform="matrix(1 0 0 1 834.1146 39.463)" class="st3 st4 st5">Cina</text>
			</g>
			<g>
				<text transform="matrix(1 0 0 1 834.1144 54.6295)" class="st6 st7 st8">36.42% degli stipendi</text>
			</g>
			<g>
				<text transform="matrix(1 0 0 1 834.1146 67.1297)" class="st9 st7 st8">51.20% dei lavoratori</text>
			</g>
		</g>
	</g>
</g>
<g id="States">
	<g id="China">
		<rect x="919" y="394.8" class="st6" width="22.8" height="120.6"/>
		<rect x="919" y="268.8" class="st10" width="22.8" height="126"/>
		<rect x="919" y="87.6" class="st9" width="22.8" height="63.7"/>
		<rect x="919" y="151.3" class="st11" width="22.8" height="110.6"/>
	</g>
	<g id="India">
		<rect x="1009.2" y="343.8" class="st6" width="22.8" height="70.1"/>
		<rect x="1009.2" y="268.8" class="st10" width="22.8" height="75.1"/>
		<rect x="1009.2" y="216.4" class="st9" width="22.8" height="19.1"/>
		<rect x="1009.2" y="235.5" class="st11" width="22.8" height="26.4"/>
	</g>
	<g id="Oman">
		<rect x="1189" y="268.2" class="st10" width="22.8" height="0.5"/>
		<rect x="1189" y="268.7" class="st6" width="22.8" height="0.5"/>
		<rect x="1189" y="261.4" class="st11" width="22.8" height="0.5"/>
		<rect x="1189" y="260.9" class="st9" width="22.8" height="0.5"/>
	</g>
	<g id="Greece">
		<rect x="163.8" y="268.7" class="st10" width="22.8" height="0.5"/>
		<rect x="163.8" y="269.1" class="st6" width="22.8" height="0.5"/>
		<rect x="163.8" y="260.1" class="st11" width="22.8" height="1.8"/>
		<rect x="163.8" y="258.7" class="st9" width="22.8" height="1.4"/>
	</g>
	<g id="UnitedArabEmirates">
		<rect x="285.9" y="268.8" class="st10" width="22.8" height="0.5"/>
		<rect x="285.9" y="269.2" class="st6" width="22.8" height="0.5"/>
		<rect x="285.9" y="258.3" class="st11" width="22.8" height="3.6"/>
		<rect x="285.9" y="256" class="st9" width="22.8" height="2.3"/>
	</g>
	<g id="Netherlands">
		<rect x="589.7" y="268.8" class="st10" width="22.8" height="0.9"/>
		<rect x="589.7" y="269.7" class="st6" width="22.8" height="1.8"/>
		<rect x="589.7" y="249.2" class="st9" width="22.8" height="4.6"/>
		<rect x="589.7" y="253.7" class="st11" width="22.8" height="8.2"/>
	</g>
	<g id="Australia">
		<rect x="1099.4" y="268.8" class="st10" width="22.8" height="1.4"/>
		<rect x="1099.4" y="270.1" class="st6" width="22.8" height="2.3"/>
		<rect x="1099.4" y="245.6" class="st9" width="22.8" height="6.4"/>
		<rect x="1099.4" y="251.9" class="st11" width="22.8" height="10"/>
	</g>
	<g id="Malaysia">
		<rect x="439" y="270.5" class="st6" width="22.8" height="2.3"/>
		<rect x="439" y="268.7" class="st10" width="22.8" height="1.8"/>
		<rect x="439" y="257.3" class="st11" width="22.8" height="4.6"/>
		<rect x="439" y="254.6" class="st9" width="22.8" height="2.7"/>
	</g>
	<g id="Poland">
		<rect x="529.2" y="271" class="st6" width="22.8" height="2.3"/>
		<rect x="529.2" y="268.8" class="st10" width="22.8" height="2.3"/>
		<rect x="529.2" y="252.4" class="st9" width="22.8" height="3.6"/>
		<rect x="529.2" y="256" class="st11" width="22.8" height="5.9"/>
	</g>
	<g id="Canada">
		<rect x="741.5" y="270.5" class="st6" width="22.8" height="2.7"/>
		<rect x="741.5" y="268.7" class="st10" width="22.8" height="1.8"/>
		<rect x="741.5" y="240.4" class="st9" width="22.8" height="8.6"/>
		<rect x="741.5" y="249.1" class="st11" width="22.8" height="12.7"/>
	</g>
	<g id="Colombia">
		<rect x="224.3" y="272" class="st6" width="22.8" height="2.3"/>
		<rect x="224.3" y="268.8" class="st10" width="22.8" height="3.2"/>
		<rect x="224.3" y="259.2" class="st11" width="22.8" height="2.7"/>
		<rect x="224.3" y="257.4" class="st9" width="22.8" height="1.8"/>
	</g>
	<g id="France">
		<rect x="799.4" y="271.5" class="st6" width="22.8" height="4.1"/>
		<rect x="799.4" y="268.8" class="st10" width="22.8" height="2.7"/>
		<rect x="799.4" y="231.9" class="st9" width="22.8" height="10.9"/>
		<rect x="799.4" y="242.8" class="st11" width="22.8" height="19.1"/>
	</g>
	<g id="Turkey">
		<rect x="499.8" y="272.3" class="st6" width="22.8" height="4.1"/>
		<rect x="499.8" y="268.7" class="st10" width="22.8" height="3.6"/>
		<rect x="499.8" y="257.3" class="st11" width="22.8" height="4.6"/>
		<rect x="499.8" y="254.6" class="st9" width="22.8" height="2.7"/>
	</g>
	<g id="Philippines">
		<rect x="317.3" y="274.7" class="st6" width="22.8" height="6.4"/>
		<rect x="317.3" y="268.8" class="st10" width="22.8" height="5.9"/>
		<rect x="317.3" y="258.3" class="st11" width="22.8" height="3.6"/>
		<rect x="317.3" y="256" class="st9" width="22.8" height="2.3"/>
	</g>
	<g id="Thai">
		<rect x="377.9" y="275.6" class="st6" width="22.8" height="5.5"/>
		<rect x="377.9" y="268.8" class="st10" width="22.8" height="6.8"/>
		<rect x="377.9" y="257.8" class="st11" width="22.8" height="4.1"/>
		<rect x="377.9" y="255.1" class="st9" width="22.8" height="2.7"/>
	</g>
	<g id="Japan">
		<rect x="979.1" y="280" class="st6" width="22.8" height="9.1"/>
		<rect x="979.1" y="268.7" class="st10" width="22.8" height="11.4"/>
		<rect x="979.1" y="193.6" class="st9" width="22.8" height="32.3"/>
		<rect x="979.1" y="225.9" class="st11" width="22.8" height="36"/>
	</g>
	<g id="Russia">
		<rect x="858" y="279.2" class="st6" width="22.8" height="11.4"/>
		<rect x="858" y="268.8" class="st10" width="22.8" height="10.5"/>
		<rect x="858" y="221.4" class="st9" width="22.8" height="17.3"/>
		<rect x="858" y="238.7" class="st11" width="22.8" height="23.2"/>
	</g>
	<g id="Indonesia">
		<rect x="650.7" y="285.5" class="st6" width="22.8" height="15.5"/>
		<rect x="650.7" y="268.7" class="st10" width="22.8" height="16.8"/>
		<rect x="650.7" y="245.9" class="st9" width="22.8" height="5.9"/>
		<rect x="650.7" y="251.8" class="st11" width="22.8" height="10"/>
	</g>
	<g id="Kenya">
		<rect x="103" y="270.9" class="st6" width="22.8" height="1.8"/>
		<rect x="103" y="268.7" class="st10" width="22.8" height="2.3"/>
		<rect x="103" y="261.4" class="st11" width="22.8" height="0.5"/>
		<rect x="103" y="260.9" class="st9" width="22.8" height="0.5"/>
	</g>
	<g id="Morocco">
		<rect x="133.4" y="270.5" class="st6" width="22.8" height="1.8"/>
		<rect x="133.4" y="268.7" class="st10" width="22.8" height="1.8"/>
		<rect x="133.4" y="261" class="st11" width="22.8" height="0.9"/>
		<rect x="133.4" y="260.5" class="st9" width="22.8" height="0.5"/>
	</g>
	<g id="CzechRep">
		<rect x="1159.5" y="268.7" class="st10" width="22.8" height="0.9"/>
		<rect x="1159.5" y="269.6" class="st6" width="22.8" height="0.5"/>
		<rect x="1159.5" y="259.6" class="st11" width="22.8" height="2.3"/>
		<rect x="1159.5" y="258.2" class="st9" width="22.8" height="1.4"/>
	</g>
	<g id="Qatar">
		<rect x="193.6" y="268.7" class="st10" width="22.8" height="0.5"/>
		<rect x="193.6" y="269.1" class="st6" width="22.8" height="0.5"/>
		<rect x="193.6" y="259.6" class="st11" width="22.8" height="2.3"/>
		<rect x="193.6" y="257.8" class="st9" width="22.8" height="1.8"/>
	</g>
	<g id="Argentina">
		<rect x="254.4" y="270.6" class="st6" width="22.8" height="2.3"/>
		<rect x="254.4" y="268.8" class="st10" width="22.8" height="1.8"/>
		<rect x="254.4" y="258.3" class="st11" width="22.8" height="3.6"/>
		<rect x="254.4" y="256.5" class="st9" width="22.8" height="1.8"/>
	</g>
	<g id="Singapore">
		<rect x="347.7" y="268.8" class="st10" width="22.8" height="0.5"/>
		<rect x="347.7" y="269.2" class="st6" width="22.8" height="0.5"/>
		<rect x="347.7" y="257.8" class="st11" width="22.8" height="4.1"/>
		<rect x="347.7" y="255.6" class="st9" width="22.8" height="2.3"/>
	</g>
	<g id="Egypt">
		<rect x="469" y="270.9" class="st6" width="22.8" height="3.6"/>
		<rect x="469" y="266.8" class="st10" width="22.8" height="4.1"/>
		<rect x="469" y="257.3" class="st11" width="22.8" height="4.6"/>
		<rect x="469" y="255" class="st9" width="22.8" height="2.3"/>
	</g>
	<g id="SouthAfrica">
		<rect x="408.8" y="270.9" class="st6" width="22.8" height="2.7"/>
		<rect x="408.8" y="268.7" class="st10" width="22.8" height="2.3"/>
		<rect x="408.8" y="257.3" class="st11" width="22.8" height="4.6"/>
		<rect x="408.8" y="255" class="st9" width="22.8" height="2.3"/>
	</g>
	<g id="Switzerland">
		<rect x="1128.8" y="268.7" class="st10" width="22.8" height="0.5"/>
		<rect x="1128.8" y="269.1" class="st6" width="22.8" height="0.9"/>
		<rect x="1128.8" y="257.3" class="st11" width="22.8" height="4.6"/>
		<rect x="1128.8" y="254.6" class="st9" width="22.8" height="2.7"/>
	</g>
	<g id="Nigeria">
		<rect x="558.9" y="277" class="st6" width="22.8" height="10"/>
		<rect x="558.9" y="268.8" class="st10" width="22.8" height="8.2"/>
		<rect x="558.9" y="252.8" class="st9" width="22.8" height="3.2"/>
		<rect x="558.9" y="256" class="st11" width="22.8" height="5.9"/>
	</g>
	<g id="SaudiArabia">
		<rect x="620.2" y="268.8" class="st10" width="22.8" height="1.4"/>
		<rect x="620.2" y="270.1" class="st6" width="22.8" height="1.4"/>
		<rect x="620.2" y="247.4" class="st9" width="22.8" height="5.9"/>
		<rect x="620.2" y="253.3" class="st11" width="22.8" height="8.6"/>
	</g>
	<g id="Spain">
		<rect x="680.9" y="271.4" class="st6" width="22.8" height="2.7"/>
		<rect x="680.9" y="268.7" class="st10" width="22.8" height="2.7"/>
		<rect x="680.9" y="245" class="st9" width="22.8" height="6.8"/>
		<rect x="680.9" y="251.8" class="st11" width="22.8" height="10"/>
	</g>
	<g id="Mexico">
		<rect x="711.4" y="277" class="st6" width="22.8" height="7.7"/>
		<rect x="711.4" y="268.8" class="st10" width="22.8" height="8.2"/>
		<rect x="711.4" y="244.2" class="st9" width="22.8" height="5.9"/>
		<rect x="711.4" y="250.1" class="st11" width="22.8" height="11.8"/>
	</g>
	<g id="SouthKorea">
		<rect x="1069" y="272.9" class="st6" width="22.8" height="3.6"/>
		<rect x="1069" y="268.8" class="st10" width="22.8" height="4.1"/>
		<rect x="1069" y="240.5" class="st9" width="22.8" height="9.6"/>
		<rect x="1069" y="250.1" class="st11" width="22.8" height="11.8"/>
	</g>
	<g id="Italy">
		<rect x="769.8" y="271.9" class="st6" width="22.8" height="4.1"/>
		<rect x="769.8" y="268.7" class="st10" width="22.8" height="3.2"/>
		<rect x="769.8" y="240" class="st9" width="22.8" height="9.6"/>
		<rect x="769.8" y="249.6" class="st11" width="22.8" height="12.3"/>
	</g>
	<g id="Brazil">
		<rect x="828.4" y="285.6" class="st6" width="22.8" height="17.3"/>
		<rect x="828.4" y="268.8" class="st10" width="22.8" height="16.8"/>
		<rect x="828.4" y="228.3" class="st9" width="22.8" height="12.3"/>
		<rect x="828.4" y="240.5" class="st11" width="22.8" height="21.4"/>
	</g>
	<g id="UK">
		<rect x="1039.3" y="272.3" class="st6" width="22.8" height="5"/>
		<rect x="1039.3" y="268.7" class="st10" width="22.8" height="3.6"/>
		<rect x="1039.3" y="225.4" class="st9" width="22.8" height="12.7"/>
		<rect x="1039.3" y="238.2" class="st11" width="22.8" height="23.7"/>
	</g>
	<g id="Germany">
		<rect x="888.2" y="275.1" class="st6" width="22.8" height="6.8"/>
		<rect x="888.2" y="268.8" class="st10" width="22.8" height="6.4"/>
		<rect x="888.2" y="200.5" class="st9" width="22.8" height="26.4"/>
		<rect x="888.2" y="226.9" class="st11" width="22.8" height="35"/>
	</g>
	<g id="USA">
		<rect x="949.4" y="287.9" class="st6" width="22.8" height="23.2"/>
		<rect x="949.4" y="268.8" class="st10" width="22.8" height="19.1"/>
		<g id="USA_4_">
			<rect x="949.4" y="15.2" class="st9" width="22.8" height="90.6"/>
			<rect x="949.4" y="105.8" class="st11" width="22.8" height="156.1"/>
		</g>
	</g>
</g>
</svg>
